# xmcd
#
# Track frame offsets:
#	187
#	22509
#	41997
#	60044
#	80829
#	99857
#	118544
#	133044
#
# Disc length: 1927 seconds
#
# Revision: 0
# Processed by: cddbd v1.5.2PL0 Copyright (c) Steve Scherf et al.
# Submitted via: EasyCDDAExtractor 15.3.0.1
#
DISCID=57078508
DTITLE=Kiara - Platino
DYEAR=1994
DGENRE=Latin
TTITLE0=Que Bello
TTITLE1=Deskarado
TTITLE2=Buscando Pelea
TTITLE3=Muerdo El Juego
TTITLE4=Que Suba La Temperatura
TTITLE5=Hombre Guapo Buscando Novia
TTITLE6=A Mas De Uno
TTITLE7=A Mis Pies
EXTD=
EXTT0=
EXTT1=
EXTT2=
EXTT3=
EXTT4=
EXTT5=
EXTT6=
EXTT7=
PLAYORDER=
